<?xml version="1.0" encoding="UTF-8"?>
<svg version="1.1" xmlns="http://www.w3.org/2000/svg" width="32" height="32">
<path d="M0 0 C0.8971875 0.5259375 0.8971875 0.5259375 1.8125 1.0625 C4.05186881 2.32479386 4.05186881 2.32479386 6.5625 1 C7.366875 0.67 8.17125 0.34 9 0 C9.99 0.66 10.98 1.32 12 2 C11.690625 3.423125 11.690625 3.423125 11.375 4.875 C11.25125 5.90625 11.1275 6.9375 11 8 C11.66 8.66 12.32 9.32 13 10 C13.62656282 14.14182438 13.43007554 17.92481115 11.875 21.8125 C8.69292382 25.52492221 6.13802103 27.70965147 1.15234375 28.38671875 C-5.2089364 28.61531494 -9.21051155 28.28533177 -14 24 C-17.2461891 20.7538109 -16.8923474 16.61478894 -17.1875 12.1875 C-17 10 -17 10 -15 8 C-12.1796875 7.5859375 -12.1796875 7.5859375 -8.875 7.375 C-7.77929688 7.30023437 -6.68359375 7.22546875 -5.5546875 7.1484375 C-4.71164062 7.09945313 -3.86859375 7.05046875 -3 7 C-2.87625 6.030625 -2.7525 5.06125 -2.625 4.0625 C-2.41875 3.051875 -2.2125 2.04125 -2 1 C-1.34 0.67 -0.68 0.34 0 0 Z M0 3 C-0.33 4.32 -0.66 5.64 -1 7 C1.64 7.66 4.28 8.32 7 9 C7 8.34 7 7.68 7 7 C6.34 7 5.68 7 5 7 C5 6.34 5 5.68 5 5 C2.525 4.01 2.525 4.01 0 3 Z M7 3 C7 3.66 7 4.32 7 5 C7.66 5 8.32 5 9 5 C9 4.34 9 3.68 9 3 C8.34 3 7.68 3 7 3 Z M-13 13 C-14.57869359 16.38341029 -14.57869359 16.38341029 -14 20 C-11.49500274 23.20082983 -9.8617926 24.7127358 -6 26 C0.33316315 26.5277636 3.95611142 26.01452357 9 22 C10.40814405 18.56191578 10.40814405 18.56191578 10 15 C7.62290138 11.61720581 4.93668644 10.12476755 1 9 C-4.28876772 8.29483097 -8.85521588 9.65680149 -13 13 Z " fill="#000000" transform="translate(18,1)"/>
<path d="M0 0 C1.19625 0.37125 2.3925 0.7425 3.625 1.125 C7.65393248 2.15732434 10.15330304 1.73101363 14 0 C14 0.99 14 1.98 14 3 C10.58794404 5.09972674 7.9699753 5.33083127 4 5 C1.625 4 1.625 4 0 3 C0 2.01 0 1.02 0 0 Z " fill="#000000" transform="translate(9,21)"/>
<path d="M0 0 C1.65 0.33 3.3 0.66 5 1 C5 2.32 5 3.64 5 5 C3.125 5.625 3.125 5.625 1 6 C0.34 5.34 -0.32 4.68 -1 4 C-0.625 1.875 -0.625 1.875 0 0 Z " fill="#000000" transform="translate(19,14)"/>
<path d="M0 0 C1.65 0.33 3.3 0.66 5 1 C4.6875 2.9375 4.6875 2.9375 4 5 C3.01 5.33 2.02 5.66 1 6 C0.34 5.67 -0.32 5.34 -1 5 C-0.67 3.35 -0.34 1.7 0 0 Z " fill="#000000" transform="translate(9,14)"/>
</svg>
